<?xml version="1.0" encoding="UTF-8" standalone="no"?>
<svg
   xmlns:dc="http://purl.org/dc/elements/1.1/"
   xmlns:cc="http://creativecommons.org/ns#"
   xmlns:rdf="http://www.w3.org/1999/02/22-rdf-syntax-ns#"
   xmlns:svg="http://www.w3.org/2000/svg"
   xmlns="http://www.w3.org/2000/svg"
   id="svg8"
   version="1.1"
   viewBox="0 0 137.73915 123.15998"
   height="123.15998mm"
   width="137.73915mm">
  <defs
     id="defs2" />
  <metadata
     id="metadata5">
    <rdf:RDF>
      <cc:Work
         rdf:about="">
        <dc:format>image/svg+xml</dc:format>
        <dc:type
           rdf:resource="http://purl.org/dc/dcmitype/StillImage" />
        <dc:title></dc:title>
      </cc:Work>
    </rdf:RDF>
  </metadata>
  <g
     transform="translate(-81.223213,-122.34666)"
     id="layer1">
    <circle
       r="25"
       style="opacity:1;fill:none;fill-opacity:1;stroke:#000000;stroke-width:3;stroke-miterlimit:4;stroke-dasharray:none;stroke-opacity:1"
       cy="201.75"
       cx="107.72321"
       id="path10-3" />
    <circle
       r="21.637682"
       cy="201.69579"
       cx="107.85297"
       id="path860"
       style="opacity:1;fill:none;fill-opacity:1;stroke:#000000;stroke-width:0.72463495;stroke-miterlimit:4;stroke-dasharray:none;stroke-opacity:1" />
    <path
       d="m 361.5332,429.49805 c -0.15138,1.6861 -1.63071,3.84872 -2.71484,5.39453 l 154.35937,17.6289 c -0.0674,-0.68115 0.37925,-1.18122 0.80079,-1.76171 0.0478,-0.0861 0.0933,-0.17252 0.14257,-0.25782 0.004,-0.0189 -0.002,-0.0549 0.004,-0.0703 0.0176,-0.0466 0.0501,-0.0975 0.0742,-0.14648 -0.007,-0.003 -0.0137,-0.004 -0.0137,-0.01 -2.3e-4,-0.0654 0.0377,-0.1264 0.043,-0.19141 10e-4,-0.0151 -0.0417,8.7e-4 -0.0391,-0.0117 0.0477,-0.25934 0.10259,-0.51699 0.1543,-0.77539 0.007,-0.27376 0.1765,-0.61573 0.19531,-0.89454 0.1251,-0.40459 0.16029,-0.41963 0.1875,-0.77343 0.0113,-0.12359 -0.15025,-0.24688 -0.0644,-0.375 0.0578,-0.0865 0.12887,-0.163 0.19141,-0.2461 z m 159.33789,18.27148 c -0.0119,0.0201 -0.0233,0.0404 -0.0351,0.0606 -7.1e-4,0.008 -0.001,0.0169 -0.002,0.0254 0.0238,-0.0425 0.036,-0.0548 0.0508,-0.084 0.002,-0.005 -0.008,8.2e-4 -0.0137,-0.002 z m -4.90039,0.0996 c 0.004,0.009 0.005,0.0187 0.01,0.0273 0.0208,0.0422 0.0838,0.0812 0.13476,0.1211 0.015,-0.009 0.0317,-0.0188 0.0449,-0.0254 -0.0657,-0.0501 -0.12551,-0.0786 -0.18946,-0.12305 z m 0.18946,0.12305 c 0.003,0.002 0.005,0.004 0.008,0.006 0.0119,-0.01 0.0206,-0.0198 0.0332,-0.0293 -0.0104,0.004 -0.0289,0.0174 -0.041,0.0234 z m 0.008,0.006 c -0.0134,0.0108 -0.0247,0.0223 -0.0371,0.0332 0.0136,0.01 0.0182,0.0216 0.0332,0.0312 0.0296,0.005 0.0588,0.009 0.0879,0.0215 0.002,-0.007 0.008,-0.0125 0.01,-0.0195 -0.0323,-0.0253 -0.0617,-0.0419 -0.0937,-0.0664 z m -0.0371,0.0332 c -0.006,-0.005 -0.01,-0.009 -0.0156,-0.0137 -0.0203,0.0119 -0.0376,0.02 -0.0605,0.0351 0.0158,-0.003 0.0312,0.004 0.0469,0.004 0.009,-0.009 0.0196,-0.0169 0.0293,-0.0254 z m -1.39844,0.38477 c 0.009,0.031 0.0301,0.0506 0.043,0.0781 0.006,-0.0209 0.0127,-0.0466 0.0176,-0.0723 -0.0267,-0.004 -0.033,-10e-4 -0.0605,-0.006 z m 5.90235,3.46875 c -0.0154,0.055 0.27092,0.55113 0.52539,1.0332 0.0996,-0.002 0.22578,-0.003 0.33593,-0.004 -0.18287,-0.24652 -0.37657,-0.50383 -0.6289,-0.80273 -0.15834,-0.18756 -0.22569,-0.25066 -0.23242,-0.22656 z m 34.59179,0.17187 c -0.003,7.9e-4 -0.007,9e-4 -0.01,0.002 0.003,-7e-5 0.005,7e-5 0.008,0 z m -0.01,0.002 c -0.15189,0.004 -0.26943,0.0139 -0.41407,0.0176 0.0113,0.0265 0.016,0.0496 0.0273,0.0742 0.12278,-0.0295 0.26572,-0.0605 0.38672,-0.0918 z m -36.76563,0.18164 c -0.004,-7.3e-4 -0.006,0.003 -0.01,0.002 -0.13405,0.52923 -0.0422,0.34838 0.0156,0.21289 -0.003,0.0231 0.01,-0.0223 0.043,-0.18946 -0.0144,-0.005 -0.0354,-0.0229 -0.0488,-0.0254 z m 36.6211,1.47461 c -0.0113,0.23282 -0.0371,0.46439 -0.082,0.69532 1.28338,0.49621 1.71689,0.57647 1.59375,0.38867 -0.11829,-0.17953 -0.75354,-0.60614 -1.51171,-1.08399 z"
       style="opacity:1;fill:#000000;fill-opacity:1;stroke:none;stroke-width:3.56775188;stroke-miterlimit:4;stroke-dasharray:none;stroke-opacity:1"
       transform="matrix(0.26458333,0,0,0.26458333,0,87)"
       id="rect920-6-9" />
    <circle
       r="25"
       style="opacity:1;fill:none;fill-opacity:1;stroke:#000000;stroke-width:3;stroke-miterlimit:4;stroke-dasharray:none;stroke-opacity:1"
       cy="201.90118"
       cx="186.87143"
       id="path10-3-6" />
    <circle
       r="21.637682"
       cy="202.12798"
       cx="186.87082"
       id="path860-7"
       style="opacity:1;fill:none;fill-opacity:1;stroke:#000000;stroke-width:0.724635;stroke-miterlimit:4;stroke-dasharray:none;stroke-opacity:1" />
    <ellipse
       ry="5.2800002"
       rx="5.2799997"
       cy="206.39317"
       cx="140.87769"
       id="path892"
       style="opacity:1;fill:none;fill-opacity:1;stroke:#000000;stroke-width:0.94;stroke-miterlimit:4;stroke-dasharray:none;stroke-opacity:1" />
    <circle
       r="2.7547827"
       cy="202.26411"
       cx="186.95676"
       id="path892-5"
       style="opacity:1;fill:none;fill-opacity:1;stroke:#000000;stroke-width:1.09000003;stroke-miterlimit:4;stroke-dasharray:none;stroke-opacity:1" />
    <path
       d="m 604.66406,133.59375 0.35352,1.19727 c 0.005,-0.001 0.0103,-0.003 0.0156,-0.004 0.0555,-0.79484 0.0788,-1.12976 0.0488,-0.86133 -0.13764,-0.11277 -0.27905,-0.22099 -0.41797,-0.33203 z m 28.14844,75.3125 c -0.0435,0.004 -0.0872,0.0184 -0.13086,0.0215 -0.034,0.0161 -0.0694,0.029 -0.10352,0.0449 0.0869,-0.008 0.16551,-0.007 0.25,-0.0117 z m 2.96094,12.37695 c -0.0118,0.0514 -0.0167,0.16825 -0.0234,0.25977 0.0116,-0.006 0.0234,-0.01 0.0352,-0.0156 0.007,-0.0301 0.0107,-0.0378 0.0156,-0.0566 -0.0104,-0.0862 -0.0172,-0.11221 -0.0273,-0.1875 z m -2.26367,7.24414 c -0.0469,0.0227 -0.0783,0.0697 -0.11719,0.10547 0.0688,-0.0302 0.2641,-0.13324 0.20703,-0.0859 -0.22101,0.18342 -0.49814,0.3017 -0.78711,0.38281 l 52.60352,178.16211 5.4375,-1.60547 -52.23243,-176.91016 h -4.46093 c -0.23413,0 -0.44822,-0.0188 -0.65039,-0.0488 z"
       style="opacity:1;fill:#000000;fill-opacity:1;stroke:none;stroke-width:3.56775188;stroke-miterlimit:4;stroke-dasharray:none;stroke-opacity:1"
       transform="matrix(0.26458333,0,0,0.26458333,0,87)"
       id="rect920" />
    <path
       d="m 177.24604,186.11492 c -0.007,0.0216 -0.0171,0.0433 -0.0227,0.0651 -0.008,0.03 -0.02,0.11696 -0.001,0.0925 0.024,-0.0309 0.0443,-0.0639 0.0672,-0.0956 z m 5.01313,7.11171 c -0.0109,0.0255 -0.0247,0.0508 -0.0351,0.0765 -0.30996,0.39183 -0.67805,0.6994 -1.08314,0.94103 l 4.33669,6.15156 c 0.31352,-0.39734 0.72557,-0.71764 1.16427,-0.95188 z m 36.49855,51.77565 c -0.0179,0.18022 -0.051,0.34957 -0.10025,0.50436 l 0.30489,-0.21446 z"
       style="opacity:1;fill:#000000;fill-opacity:1;stroke:none;stroke-width:0.9439677;stroke-miterlimit:4;stroke-dasharray:none;stroke-opacity:1"
       id="rect920-5" />
    <path
       d="m 664.06445,256.30664 c -0.0667,0.14088 -0.11376,0.25093 -0.17578,0.38477 0.0257,0.003 0.0507,0.008 0.0762,0.0117 0.0297,-0.12585 0.0714,-0.27305 0.0996,-0.39648 z m 3.0586,0.0508 c -0.21377,0.0223 -0.88386,0.39117 -1.65625,0.8457 0.2024,0.11512 0.39603,0.24559 0.58008,0.39258 1.02963,-0.91276 1.29954,-1.26156 1.07617,-1.23828 z m -12.64258,13.4707 -0.0937,0.14063 c 0.0432,0.021 0.0847,0.0453 0.12695,0.0684 0.0136,-0.0141 0.0251,-0.0335 0.0391,-0.0469 -0.0245,-0.055 -0.0502,-0.11043 -0.0723,-0.16211 z M 652,273.53125 544.10547,434.58984 l 4.70898,3.1543 105.09766,-156.88672 c -0.39332,0.0133 -0.67392,-0.0844 -0.69727,-0.39258 -0.005,-10e-4 -0.007,-0.003 -0.0117,-0.004 -0.19274,-0.0495 -0.0373,-0.39675 -0.043,-0.59571 -0.006,-0.14964 -0.005,-0.29948 -0.008,-0.44921 -0.14327,-0.0193 -0.2872,-0.0329 -0.42968,-0.0566 -0.13493,-0.0227 -0.003,-0.27353 0.008,-0.41016 0.0432,-0.66274 0.10446,-1.22945 0.17187,-1.82031 -0.814,-1.16872 -0.83054,-0.82976 -0.79687,-1.6875 0.0135,-0.18534 -0.008,-0.37595 0.0293,-0.55664 -0.014,-0.01 -0.0293,-0.017 -0.043,-0.0274 -0.25172,-0.18784 -0.0159,-0.6274 -0.0234,-0.9414 0.0172,-0.0402 0.0255,-0.0861 0.0391,-0.12891 -0.037,-0.091 -0.064,-0.15253 -0.10742,-0.25586 z m 0.1875,1.38477 c 0.006,0.0147 0.004,0.0251 0.0137,0.0293 0.0286,0.012 0.0948,0.0428 0.12695,0.0566 -0.0483,-0.0262 -0.0946,-0.0558 -0.14062,-0.0859 z m 0.53906,0.26367 c 0.009,0.004 0.0183,0.01 0.0274,0.0137 -9.5e-4,-0.002 -9.6e-4,-0.004 -0.002,-0.006 -0.008,-0.003 -0.0171,-0.005 -0.0254,-0.008 z"
       style="opacity:1;fill:#000000;fill-opacity:1;stroke:none;stroke-width:3.56775188;stroke-miterlimit:4;stroke-dasharray:none;stroke-opacity:1"
       transform="matrix(0.26458333,0,0,0.26458333,0,87)"
       id="rect920-6" />
    <path
       d="m 462.56445,236.31055 c -0.91017,0.0159 -1.81974,0.0616 -2.72851,0.125 l 62.86523,197.86914 5.4043,-1.71485 -62.35352,-196.26367 c -1.06261,-0.0202 -2.12523,-0.0341 -3.1875,-0.0156 z"
       style="opacity:1;fill:#000000;fill-opacity:1;stroke:none;stroke-width:3.56775188;stroke-miterlimit:4;stroke-dasharray:none;stroke-opacity:1"
       transform="matrix(0.26458333,0,0,0.26458333,0,87)"
       id="rect920-6-2" />
    <path
       d="m 642.98633,258.49219 -169.72656,18.98047 c 0.0793,0.33081 0.12824,0.66771 0.10937,1.04296 -0.0343,0.23587 -0.0618,0.43424 -0.0996,0.53126 0.10848,0.0769 0.21268,0.16068 0.30469,0.25781 0.11579,0.12219 0.19949,0.32345 0.27148,0.54297 0.10914,0.17034 0.20234,0.35445 0.36719,0.63867 0.31106,0.82454 0.39071,0.85201 0.45508,1.74023 1.3e-4,0.002 -1.2e-4,0.004 0,0.006 0.0637,0.2667 0.10023,0.53497 0.11133,0.77539 L 643.6172,264.12709 Z"
       style="opacity:1;fill:#000000;fill-opacity:1;stroke:none;stroke-width:3.56775188;stroke-miterlimit:4;stroke-dasharray:none;stroke-opacity:1"
       transform="matrix(0.26458333,0,0,0.26458333,0,87)"
       id="rect920-6-2-9" />
    <rect
       transform="rotate(-90)"
       y="85.863136"
       x="-173.99196"
       height="39.46154"
       width="1.4960001"
       id="rect1286"
       style="opacity:1;fill:#000000;fill-opacity:1;stroke:none;stroke-width:0.95542473;stroke-miterlimit:4;stroke-dasharray:none;stroke-opacity:1" />
    <rect
       transform="rotate(-90)"
       y="85.841995"
       x="-171.25574"
       height="39.46154"
       width="0.5"
       id="rect1286-2"
       style="opacity:1;fill:#000000;fill-opacity:1;stroke:none;stroke-width:0.55235165;stroke-miterlimit:4;stroke-dasharray:none;stroke-opacity:1" />
    <path
       id="path1842-6"
       d="m 95.748511,201.30187 44.057359,-0.26699 v 0 0"
       style="fill:none;stroke:#000000;stroke-width:0.465;stroke-linecap:butt;stroke-linejoin:miter;stroke-miterlimit:4;stroke-dasharray:1.39500001, 0.465;stroke-dashoffset:0;stroke-opacity:1" />
    <path
       id="path1842"
       d="m 97.858137,205.6221 43.615373,6.23077 v 0 0"
       style="fill:none;stroke:#000000;stroke-width:0.465;stroke-linecap:butt;stroke-linejoin:miter;stroke-miterlimit:4;stroke-dasharray:1.395, 0.465;stroke-dashoffset:0;stroke-opacity:1" />
    <path
       d="m 95.587448,171.22897 v 3.85713 c 0.01529,0.007 0.028,0.0139 0.04548,0.0202 0.127188,-0.11993 0.302379,-0.13308 0.454753,-0.0336 v -3.8437 z"
       style="opacity:1;fill:#000000;fill-opacity:1;stroke:none;stroke-width:0.55235165;stroke-miterlimit:4;stroke-dasharray:none;stroke-opacity:1"
       id="rect1286-2-6" />
    <path
       d="m 115.25859,171.10456 v 3.85713 c 0.0153,0.007 0.028,0.0139 0.0455,0.0202 0.12719,-0.11993 0.30238,-0.13308 0.45476,-0.0336 v -3.8437 z"
       style="opacity:1;fill:#000000;fill-opacity:1;stroke:none;stroke-width:0.55235165;stroke-miterlimit:4;stroke-dasharray:none;stroke-opacity:1"
       id="rect1286-2-6-1" />
    <path
       id="rect1314"
       d="m 87.633392,173.35354 h 36.534638 l -9.55972,33.94559 H 97.193113 Z"
       style="opacity:1;fill:#ff2f18;fill-opacity:1;stroke:#000000;stroke-width:1.12064743;stroke-linecap:round;stroke-linejoin:bevel;stroke-miterlimit:4;stroke-dasharray:none;stroke-opacity:1;paint-order:fill markers stroke" />
    <path
       d="m 331.05664,379.32227 c 0.11289,0.1694 0.24352,0.32483 0.39453,0.46484 0.0725,-0.086 0.16356,-0.16296 0.25195,-0.24219 z m -2.66992,1.74414 c -0.0857,2.6e-4 -0.29039,0.006 -0.36914,0.006 l 0.46875,0.16211 c -0.0367,-0.0558 -0.061,-0.11228 -0.0996,-0.16797 z m 12.43945,1.61523 c -0.0261,0.082 -0.0596,0.162 -0.10742,0.23633 -0.0736,0.11453 -0.15932,0.21801 -0.25,0.31641 -0.0116,0.0684 -0.0257,0.14176 -0.0215,0.19335 0.0596,0.72822 -0.0118,1.34186 -0.16016,1.86524 l 58.77344,20.2168 c 0.0273,-0.0711 0.057,-0.14157 0.0957,-0.20899 0.32466,-0.56606 1.19961,-0.51624 1.79687,-0.7793 0.15723,-0.0692 -0.64467,0.23475 -0.47656,0.19922 0.53988,-0.11396 1.38786,-0.70516 1.74024,-0.92187 z m -5.61328,0.86719 0.33594,0.11523 c -0.002,-0.0433 -0.003,-0.0831 -0.006,-0.11523 z m 120.7168,39.55273 c -10e-4,0.0165 -0.002,0.0342 -0.004,0.0508 0.004,2.5e-4 0.008,-2.4e-4 0.0117,0 -0.004,-0.017 -0.004,-0.0338 -0.008,-0.0508 z m 10.77929,2.88282 c -0.14062,0.30199 -0.20234,0.60264 -0.25781,0.98242 0.12496,-0.20262 0.24809,-0.40552 0.38086,-0.60352 0.0623,-0.0929 0.13557,-0.17818 0.20508,-0.26562 z"
       style="opacity:1;fill:#000000;fill-opacity:1;stroke:none;stroke-width:1.01675236;stroke-linecap:round;stroke-linejoin:bevel;stroke-miterlimit:4;stroke-dasharray:none;stroke-opacity:1;paint-order:fill markers stroke"
       transform="matrix(0.26458333,0,0,0.26458333,0,87)"
       id="rect1324" />
    <path
       d="m 121.48949,188.08034 -16.17782,5.56556 c 5.3e-4,0.0836 -0.0539,0.19663 -0.0579,0.28267 -0.002,0.037 -0.008,0.0686 -0.0119,0.10335 0.0562,0.039 0.11249,0.0779 0.16847,0.1173 -0.008,2.7e-4 -0.0134,8e-4 -0.008,0.006 0.0595,0.0471 0.12162,0.0907 0.18242,0.13591 l 15.69982,-5.4007 c -9e-5,-0.002 -5.3e-4,-0.003 -5.3e-4,-0.006 -0.0686,-0.0299 -0.13533,-0.0644 -0.19637,-0.10956 -0.11333,-0.0839 0.16406,-0.22946 0.24081,-0.34778 0.0448,-0.0691 0.0856,-0.14108 0.12402,-0.21394 0.0115,-0.0218 0.0207,-0.0446 0.0315,-0.0667 -2.4e-4,-0.0171 0.004,-0.0458 0.005,-0.0661 z m -0.29249,0.53331 c -0.018,-0.0242 -0.0772,0.0926 -0.0568,0.0703 0.0455,-0.0499 0.0344,-0.0397 0.0589,-0.0677 -5.3e-4,-7.9e-4 -0.001,-0.002 -0.002,-0.003 z m -15.78611,5.53557 c 0.015,-5.2e-4 0.043,0.003 0.0563,0.006 0.0447,0.0111 0.0751,0.0541 0.10749,0.0868 0.007,0.007 0.0161,0.0314 0.008,0.0264 -0.0587,-0.0376 -0.11457,-0.0792 -0.17156,-0.11938 z m -6.546355,1.71411 -0.01188,0.004 c -0.0011,0.002 -0.01566,0.0339 -0.0155,0.0341 5.29e-4,0.001 0.0011,0.003 0.0016,0.004 0.0034,-0.006 0.02011,-0.0319 0.02585,-0.0419 z m -0.0217,0.007 -0.01447,0.005 c 0.0021,0.006 0.0019,0.0105 0.0041,0.0165 0.0035,-0.007 0.0068,-0.0142 0.01035,-0.0212 z m 1.167885,0.30437 v 5.3e-4 c 0.002,0.01 0.006,0.0214 0.007,0.031 l 0.0501,-0.0176 c 0.002,-0.004 0.003,-0.003 0.004,-0.006 -0.004,7.9e-4 -0.0589,-0.008 -0.0615,-0.008 z m 0.0687,0.008 c -2.6e-4,10e-4 2.6e-4,5.3e-4 0,0.002 l 0.004,-0.002 c -8e-4,7e-5 -0.003,-7e-5 -0.004,0 z m -0.768945,0.0625 c -0.04601,0.01 -0.06489,0.0129 -0.09612,0.0186 0.0091,-2.4e-4 0.01833,-1.2e-4 0.02739,-5.3e-4 0.02379,-7.9e-4 0.09204,-0.023 0.06873,-0.0181 z M 84.3579,201.55289 c 0.0026,0.0124 0.0046,0.0249 0.0072,0.0372 l 0.01085,-0.004 c -0.006,-0.0113 -0.01222,-0.0222 -0.0181,-0.0331 z"
       style="opacity:1;fill:#000000;fill-opacity:1;stroke:none;stroke-width:0.26901573;stroke-linecap:round;stroke-linejoin:bevel;stroke-miterlimit:4;stroke-dasharray:none;stroke-opacity:1;paint-order:fill markers stroke"
       id="rect1324-7" />
    <path
       d="m 487.0625,262.32812 c -0.0669,0.14098 -0.1138,0.25094 -0.17578,0.38477 0.0265,0.003 0.0505,0.008 0.0762,0.0117 0.0302,-0.12586 0.0713,-0.27289 0.0996,-0.39649 z m 3.05859,0.0508 c -0.21392,0.0227 -0.88386,0.39117 -1.65625,0.8457 0.20259,0.11527 0.39602,0.24567 0.58008,0.39258 1.02962,-0.91276 1.29954,-1.26153 1.07617,-1.23828 z m -12.64257,13.4707 -0.0937,0.14062 c 0.0431,0.0227 0.0846,0.0453 0.12695,0.0684 0.0151,-0.0151 0.0266,-0.034 0.0391,-0.0469 -0.0227,-0.0548 -0.0503,-0.11033 -0.0723,-0.16211 z m -2.48047,3.70312 -30.89258,46.11329 c 0.11568,-0.008 0.2334,-0.0184 0.34765,-0.0215 0.44871,-0.004 0.89903,0.004 1.34766,0.0117 0.10167,0.001 0.40594,0.0121 0.30469,0.004 -0.47452,-0.0397 -0.52587,0.0934 -0.14063,-0.22071 0.46878,-0.49825 1.11076,-0.40887 1.67969,-0.30664 0.2589,0.0465 0.42794,0.13022 0.43164,0.0645 0.50612,-0.062 0.811,0.0124 1.3418,0.18359 0.39689,0.12888 0.22993,0.24147 0.36523,0.0918 0.36548,-0.001 0.74927,-0.134 1.11524,-0.0762 0.0619,0.01 0.122,0.0294 0.18359,0.041 l 25.82813,-38.55859 c -0.3933,0.0151 -0.67391,-0.0843 -0.69727,-0.39258 -0.004,-9.8e-4 -0.008,-0.003 -0.0117,-0.004 -0.19275,-0.0495 -0.0377,-0.39675 -0.043,-0.5957 -0.008,-0.14967 -0.004,-0.29932 -0.008,-0.44922 -0.14324,-0.0189 -0.28724,-0.034 -0.42969,-0.0566 -0.13493,-0.0227 -0.003,-0.27364 0.008,-0.41016 0.0431,-0.66274 0.10422,-1.22946 0.17187,-1.82031 -0.814,-1.16874 -0.83055,-0.82974 -0.79687,-1.6875 0.0151,-0.1852 -0.007,-0.37609 0.0312,-0.55664 -0.0151,-0.0113 -0.0301,-0.014 -0.043,-0.0254 -0.25172,-0.18784 -0.0159,-0.6274 -0.0234,-0.94141 0.0189,-0.0401 0.0262,-0.0862 0.0391,-0.1289 -0.0378,-0.0911 -0.064,-0.15268 -0.10742,-0.25586 z m 0.18945,1.38672 c 0.006,0.0134 0.003,0.0258 0.0137,0.0293 0.0302,0.0113 0.0948,0.0427 0.12695,0.0566 -0.0484,-0.0265 -0.0945,-0.0561 -0.14062,-0.0859 z m 0.53906,0.26367 c 0.007,0.004 0.0185,0.0102 0.0254,0.0137 -9.8e-4,-0.002 -7.3e-4,-0.004 -0.002,-0.008 -0.006,-0.003 -0.0162,-0.003 -0.0234,-0.006 z m -36.81836,56.67774 c 4.2e-4,0.006 -3.6e-4,0.0132 0,0.0195 0.007,3.6e-4 0.013,0.002 0.0195,0.002 -0.007,-0.007 -0.0132,-0.0142 -0.0195,-0.0215 z m -7.92773,14.03125 -0.12891,0.006 c -6.2e-4,-0.0324 0.009,0.2078 0.01,0.20312 0.0207,-0.005 0.0418,-0.009 0.0625,-0.0137 0.0356,-0.0576 0.0729,-0.11396 0.11133,-0.16992 -0.018,-0.009 -0.0367,-0.0165 -0.0547,-0.0254 z m -4.37695,2.47851 c -7.1e-4,0.0238 -0.01,0.0225 -0.01,0.0508 -0.024,0.0372 -0.051,0.0728 -0.0762,0.10937 0.0373,0.0149 0.0768,0.0314 0.11914,0.0508 0.0196,-0.0682 0.0456,-0.13513 0.0664,-0.20312 -0.0374,-0.006 -0.0664,-0.005 -0.0996,-0.008 z m -22.53711,32.76368 c -0.13537,0.0439 -1.27484,1.23307 -0.94727,1.01953 0.11347,-0.074 0.37592,-0.28198 0.58789,-0.44531 0.11779,-0.17102 0.24256,-0.33786 0.34961,-0.51563 0.0288,-0.0479 0.0283,-0.0649 0.01,-0.0586 z M 387.1875,413.4961 c -0.013,-0.008 -0.0249,-0.005 -0.0371,0.0156 -0.003,0.006 -0.006,0.0118 -0.01,0.0176 0.0421,0.14175 0.0845,0.28035 0.13477,0.41406 0.005,-0.0543 0.0139,-0.0971 0.0195,-0.14844 -0.0284,-0.1376 -0.0672,-0.27339 -0.10742,-0.29883 z"
       style="opacity:1;fill:#000000;fill-opacity:1;stroke:none;stroke-width:3.56775188;stroke-miterlimit:4;stroke-dasharray:none;stroke-opacity:1"
       transform="matrix(0.26458333,0,0,0.26458333,0,87)"
       id="rect920-6-0" />
    <path
       id="rect1636"
       d="m 116.2033,148.35447 14.88085,1.8965 c 0.94333,0.12022 1.17214,0.32053 1.03378,1.26137 l -0.0759,0.51576 c -0.13837,0.94084 -0.0828,1.26136 -1.03379,1.26136 h -14.80499 c -0.95096,0 -1.71652,-0.76556 -1.71652,-1.71652 v -1.50196 c 0,-0.95094 0.77319,-1.83674 1.71652,-1.71651 z"
       style="opacity:1;fill:#000000;fill-opacity:1;stroke:none;stroke-width:1.06615031;stroke-linecap:round;stroke-linejoin:bevel;stroke-miterlimit:4;stroke-dasharray:none;stroke-opacity:1;paint-order:fill markers stroke" />
    <rect
       transform="rotate(-12.232861)"
       ry="0.24794301"
       y="179.41679"
       x="131.18529"
       height="1.6402376"
       width="4.0261168"
       id="rect1668"
       style="opacity:1;fill:#000000;fill-opacity:1;stroke:none;stroke-width:0.10851597;stroke-linecap:round;stroke-linejoin:bevel;stroke-miterlimit:4;stroke-dasharray:none;stroke-opacity:1;paint-order:fill markers stroke" />
    <path
       transform="matrix(0.26458333,0,0,0.26458333,0,87)"
       d="m 635.14453,220.85547 -3.31641,1.02148 6.1211,19.89453 3.3164,-1.02148 z"
       style="opacity:1;fill:#000000;fill-opacity:1;stroke:none;stroke-width:4.87559032;stroke-linecap:round;stroke-linejoin:bevel;stroke-miterlimit:4;stroke-dasharray:none;stroke-opacity:1;paint-order:fill markers stroke"
       id="rect1698" />
    <path
       d="m 637.89258,218.42188 c -0.33822,1.28243 -1.57696,1.18445 -1.67383,0.0234 l -4.39063,3.43164 2.13672,2.73243 4.9336,-3.85743 c -0.2786,-0.31721 -0.22727,-0.73136 -0.23047,-1.10742 0,-0.0499 2e-5,-0.11636 0,-0.17187 -0.24423,-0.016 -0.50145,-0.043 -0.77735,-0.0898 -0.1708,-0.0302 -0.003,-0.34658 0.008,-0.51953 0.008,-0.11831 0.0359,-0.29867 0.0508,-0.4414 -0.018,-0.001 -0.0386,0.001 -0.0566,0 z m 0.16797,0.20703 c 0.003,0.004 0.39095,0.26394 0.60742,0.41015 0,-0.0216 -10e-6,-0.0412 0,-0.0625 -0.18823,-0.11203 -0.60147,-0.34696 -0.60742,-0.34765 z"
       style="opacity:1;fill:#000000;fill-opacity:1;stroke:none;stroke-width:4.87559032;stroke-linecap:round;stroke-linejoin:bevel;stroke-miterlimit:4;stroke-dasharray:none;stroke-opacity:1;paint-order:fill markers stroke"
       transform="matrix(0.26458333,0,0,0.26458333,0,87)"
       id="rect1698-3" />
    <path
       d="m 636.07227,211.13477 c -0.36516,0.34955 -0.78075,0.41125 -1.30274,0.49804 -1.28644,0.21392 0.36003,-0.0564 -0.76562,0.12696 -0.36322,0.0593 -0.8654,0.009 -1.16602,-0.0176 -0.0709,0.003 -0.14192,4.4e-4 -0.21289,0.002 l 3.14844,9.91797 3.30664,-1.04883 z m -0.25782,0.0234 c 0.0446,-0.004 -0.0924,-0.009 -0.13476,0.002 -0.009,0.003 -0.018,0.008 -0.0274,0.0117 -0.002,0.003 -0.004,0.005 -0.006,0.008 -0.0264,0.0491 0.11166,-0.0177 0.16797,-0.0215 z"
       style="opacity:1;fill:#000000;fill-opacity:1;stroke:none;stroke-width:4.87559032;stroke-linecap:round;stroke-linejoin:bevel;stroke-miterlimit:4;stroke-dasharray:none;stroke-opacity:1;paint-order:fill markers stroke"
       transform="matrix(0.26458333,0,0,0.26458333,0,87)"
       id="rect1698-3-6" />
    <rect
       transform="rotate(-12.327517)"
       y="175.4995"
       x="128.40536"
       height="0.91787899"
       width="5.5072737"
       id="rect1698-3-6-0"
       style="opacity:1;fill:#000000;fill-opacity:1;stroke:none;stroke-width:1.28999996;stroke-linecap:round;stroke-linejoin:bevel;stroke-miterlimit:4;stroke-dasharray:none;stroke-opacity:1;paint-order:fill markers stroke" />
    <rect
       transform="rotate(-11.361156)"
       ry="1.1473488"
       y="172.494"
       x="127.52032"
       height="2.2946975"
       width="6.792304"
       id="rect1838"
       style="opacity:1;fill:#000000;fill-opacity:1;stroke:none;stroke-width:1.28999996;stroke-linecap:round;stroke-linejoin:bevel;stroke-miterlimit:4;stroke-dasharray:none;stroke-opacity:1;paint-order:fill markers stroke" />
    <rect
       ry="0.1333092"
       y="173.15213"
       x="103.69678"
       height="1.8146055"
       width="4.1353955"
       id="rect1840"
       style="opacity:1;fill:#000000;fill-opacity:1;stroke:none;stroke-width:0.7871787;stroke-linecap:round;stroke-linejoin:bevel;stroke-miterlimit:4;stroke-dasharray:none;stroke-opacity:1;paint-order:fill markers stroke" />
    <rect
       transform="rotate(7.2624294)"
       ry="0.72304887"
       y="113.06355"
       x="125.51839"
       height="17.312515"
       width="29.800234"
       id="rect1866"
       style="opacity:1;fill:none;fill-opacity:1;stroke:#000000;stroke-width:0.5466004;stroke-linecap:round;stroke-linejoin:bevel;stroke-miterlimit:4;stroke-dasharray:none;stroke-dashoffset:0;stroke-opacity:1;paint-order:fill markers stroke" />
    <rect
       transform="rotate(7.2956707)"
       ry="0.66140515"
       y="130.25093"
       x="122.12127"
       height="2.051544"
       width="36.086536"
       id="rect1864"
       style="opacity:1;fill:none;fill-opacity:1;stroke:#000000;stroke-width:0.37564808;stroke-linecap:round;stroke-linejoin:bevel;stroke-miterlimit:4;stroke-dasharray:none;stroke-dashoffset:0;stroke-opacity:1;paint-order:fill markers stroke" />
    <rect
       transform="rotate(7.2624293)"
       ry="0.63498676"
       y="114.43764"
       x="127.29385"
       height="15.203976"
       width="26.170782"
       id="rect1866-2"
       style="opacity:1;fill:none;fill-opacity:1;stroke:#000000;stroke-width:0.48002842;stroke-linecap:round;stroke-linejoin:bevel;stroke-miterlimit:4;stroke-dasharray:none;stroke-dashoffset:0;stroke-opacity:1;paint-order:fill markers stroke" />
    <rect
       transform="rotate(7.4321492)"
       ry="0.50483346"
       y="129.96146"
       x="138.18243"
       height="1.0096669"
       width="4.0386677"
       id="rect1883"
       style="opacity:1;fill:none;fill-opacity:1;stroke:#000000;stroke-width:0.30000001;stroke-linecap:round;stroke-linejoin:bevel;stroke-miterlimit:4;stroke-dasharray:none;stroke-dashoffset:0;stroke-opacity:1;paint-order:fill markers stroke" />
    <rect
       ry="1.6829658"
       y="162.37424"
       x="91.442307"
       height="8.6280613"
       width="8.4444866"
       id="rect1975"
       style="opacity:1;fill:#000000;fill-opacity:1;stroke:none;stroke-width:0.21679483;stroke-linecap:round;stroke-linejoin:bevel;stroke-miterlimit:4;stroke-dasharray:none;stroke-dashoffset:0;stroke-opacity:1;paint-order:fill markers stroke" />
    <rect
       ry="0"
       y="161.38112"
       x="91.442299"
       height="6.7275958"
       width="8.4229279"
       id="rect2001"
       style="opacity:1;fill:#000000;fill-opacity:1;stroke:none;stroke-width:0.30000001;stroke-linecap:round;stroke-linejoin:bevel;stroke-miterlimit:4;stroke-dasharray:none;stroke-dashoffset:0;stroke-opacity:1;paint-order:fill markers stroke" />
    <rect
       ry="1.331459"
       y="163.03368"
       x="97.770126"
       height="4.5022473"
       width="4.7729707"
       id="rect2003"
       style="opacity:1;fill:none;fill-opacity:1;stroke:#000000;stroke-width:0.62262154;stroke-linecap:round;stroke-linejoin:bevel;stroke-miterlimit:4;stroke-dasharray:none;stroke-dashoffset:0;stroke-opacity:1;paint-order:fill markers stroke" />
    <rect
       ry="0.060471088"
       y="163.03368"
       x="96.299294"
       height="2.4000001"
       width="2"
       id="rect2005"
       style="opacity:1;fill:#ffffff;fill-opacity:1;stroke:#000000;stroke-width:0.509;stroke-linecap:round;stroke-linejoin:bevel;stroke-miterlimit:4;stroke-dasharray:none;stroke-dashoffset:0;stroke-opacity:1;paint-order:fill markers stroke" />
    <rect
       ry="0.060471088"
       y="161.29201"
       x="97.127998"
       height="2.4000001"
       width="0.30700001"
       id="rect2005-7"
       style="opacity:1;fill:#ffffff;fill-opacity:1;stroke:none;stroke-width:0.1994215;stroke-linecap:round;stroke-linejoin:bevel;stroke-miterlimit:4;stroke-dasharray:none;stroke-dashoffset:0;stroke-opacity:1;paint-order:fill markers stroke" />
  </g>
</svg>
